<?xml version="1.0" encoding="utf-8"?>
<!-- Generator: Adobe Illustrator 23.0.0, SVG Export Plug-In . SVG Version: 6.00 Build 0)  -->
<svg version="1.1" id="Layer_1" xmlns="http://www.w3.org/2000/svg" xmlns:xlink="http://www.w3.org/1999/xlink" x="0px" y="0px"
	 viewBox="0 0 512 512" style="enable-background:new 0 0 512 512;" xml:space="preserve">
<style type="text/css">
	.st0{fill:#FFFFFF;}
</style>
<path class="st0" d="M466.5,66.9c21.2-9.9,45.5,5.6,45.5,29V339c0,10.5-5.2,20.4-13.8,26.4c-35.8,24.6-74.3,40.9-122.5,40.9
	c-67.4,0-111.6-34.8-165.2-34.8c-50.9,0-86.1,10.1-114.4,22.1V488c0,13.3-10.7,24-24,24H56c-13.3,0-24-10.7-24-24V101.9
	C17.5,91.8,8,75,8,56C8,24.3,34.3-1.3,66.3,0c28.5,1.2,51.8,24,53.6,52.4c0.5,8.3-0.8,16.3-3.6,23.6c20.7-7.6,43.1-12,68-12
	c67.4,0,111.6,34.8,165.2,34.8C390.1,98.8,432.2,82.9,466.5,66.9z M96,134.6v70.5c29-10.7,51.2-17.8,73.6-20.9v-71.6
	C146.1,114.8,129.2,122.4,96,134.6L96,134.6z M316.8,143.8c-26.4-4.7-49.9-14-73.6-21.3v67.4c24.2,6.7,47.6,16.4,73.6,22.3V143.8z
	 M169.6,184.2v70c32.8-3,53.9-0.6,73.6,3.8v-68.1C218,182.9,196.6,180.5,169.6,184.2L169.6,184.2z M243.2,326.4
	c26.3,4.7,49.7,13.9,73.6,21.3v-67.4c-24.3-6.7-47.5-16.5-73.6-22.3V326.4z M96,342.1c23.6-8.4,47.8-13.8,73.6-16.6v-71.3
	c-26.1,2.4-47.4,8-73.6,17.4L96,342.1L96,342.1z M464,120.5c-21.3,8.9-46.6,17.6-73.6,22.5v71.9c27.3-4.4,50-14.1,73.6-23.9V120.5z
	 M464,330.5V260c-22.2,14.2-48.8,22.6-73.6,26v71.6C415.5,355.2,438.9,346.5,464,330.5z M316.8,212.2v68.2
	c25.7,7.1,46.6,9.3,73.6,5.6v-71.1C364.4,219.1,340.5,217.6,316.8,212.2L316.8,212.2z"/>
</svg>
